<svg xmlns="http://www.w3.org/2000/svg">
    <symbol id="user" viewBox="0 0 20 20">
        <title>Username icon</title>
        <path d="M9.5 11c-3.033 0-5.5-2.467-5.5-5.5s2.467-5.5 5.5-5.5 5.5 2.467 5.5 5.5-2.467 5.5-5.5 5.5zM9.5 1c-2.481 0-4.5 2.019-4.5 4.5s2.019 4.5 4.5 4.5c2.481 0 4.5-2.019 4.5-4.5s-2.019-4.5-4.5-4.5z"></path>
        <path d="M17.5 20h-16c-0.827 0-1.5-0.673-1.5-1.5 0-0.068 0.014-1.685 1.225-3.3 0.705-0.94 1.67-1.687 2.869-2.219 1.464-0.651 3.283-0.981 5.406-0.981s3.942 0.33 5.406 0.981c1.199 0.533 2.164 1.279 2.869 2.219 1.211 1.615 1.225 3.232 1.225 3.3 0 0.827-0.673 1.5-1.5 1.5zM9.5 13c-3.487 0-6.060 0.953-7.441 2.756-1.035 1.351-1.058 2.732-1.059 2.746 0 0.274 0.224 0.498 0.5 0.498h16c0.276 0 0.5-0.224 0.5-0.5-0-0.012-0.023-1.393-1.059-2.744-1.382-1.803-3.955-2.756-7.441-2.756z"></path>
    </symbol>
    <symbol id="lock" viewBox="0 0 20 20">
        <title>Password icon</title>
        <path d="M14.5 8h-0.5v-1.5c0-2.481-2.019-4.5-4.5-4.5s-4.5 2.019-4.5 4.5v1.5h-0.5c-0.827 0-1.5 0.673-1.5 1.5v8c0 0.827 0.673 1.5 1.5 1.5h10c0.827 0 1.5-0.673 1.5-1.5v-8c0-0.827-0.673-1.5-1.5-1.5zM6 6.5c0-1.93 1.57-3.5 3.5-3.5s3.5 1.57 3.5 3.5v1.5h-7v-1.5zM15 17.5c0 0.276-0.224 0.5-0.5 0.5h-10c-0.276 0-0.5-0.224-0.5-0.5v-8c0-0.276 0.224-0.5 0.5-0.5h10c0.276 0 0.5 0.224 0.5 0.5v8z"></path>
    </symbol>
    <symbol id="profile" viewBox="0 0 16 19" preserveAspectRatio="xMaxYMax meet">
        <title>My Profile</title>
        <path class="profile" d="M0.004,19.000 L0.765,12.232 L4.545,10.738 L5.268,12.526 L2.560,13.597 L2.170,17.072 L13.820,17.072 L13.429,13.597 L10.722,12.526 L11.446,10.738 L15.225,12.232 L15.985,19.000 L0.004,19.000 ZM7.868,11.032 C4.794,11.032 2.294,8.558 2.294,5.516 C2.294,2.474 4.794,-0.000 7.868,-0.000 C10.940,-0.000 13.439,2.474 13.439,5.516 C13.439,8.558 10.940,11.032 7.868,11.032 ZM7.868,1.927 C5.863,1.927 4.231,3.537 4.231,5.516 C4.231,7.495 5.863,9.105 7.868,9.105 C9.873,9.105 11.504,7.495 11.504,5.516 C11.504,3.537 9.873,1.927 7.868,1.927 Z"/>
    </symbol>
</svg>